# xmcd CD database file
#
# Track frame offsets:
#	150
#	40703
#	72557
#	100874
#	159198
#
# Disc length: 2498 seconds
#
# Revision: 0
# Processed by: cddbd v1.5.2PL0 Copyright (c) Steve Scherf et al.
# Submitted via: CDex 1.70beta2
#
DISCID=3609c005
DTITLE=Wolfgang Dauner - Free Action
DYEAR=1967
DGENRE=Jazz
TTITLE0=Sketch Up And Downer
TTITLE1=Disguise
TTITLE2=Free Action Shot
TTITLE3=My Spanish Disguise
TTITLE4=Collage
EXTD=YEAR: 1967
EXTT0=
EXTT1=
EXTT2=
EXTT3=
EXTT4=
PLAYORDER=
